<svg xmlns="http://www.w3.org/2000/svg" xmlns:xlink="http://www.w3.org/1999/xlink" xmlns:svgjs="http://svgjs.com/svgjs" version="1.1" width="512" height="512" x="0" y="0" viewBox="0 0 512 512" style="enable-background:new 0 0 512 512" xml:space="preserve"><g><g><g fill="#c0edff"><path d="m240.989 150.177v26.937c0 8.284 6.716 15 15 15s15-6.716 15-15v-26.817l49.256-45.228c6.102-5.604 6.506-15.092.903-21.194-5.604-6.103-15.092-6.506-21.194-.903l-28.965 26.596v-30.66l40.191-36.906c6.102-5.604 6.506-15.092.903-21.194s-15.092-6.505-21.194-.903l-19.9 18.273v-23.178c0-8.284-6.716-15-15-15s-15 6.716-15 15v22.32l-18.32-17.28c-6.026-5.685-15.521-5.407-21.204.62-5.684 6.026-5.406 15.52.62 21.204l38.904 36.695v30.378l-27.385-25.83c-6.026-5.685-15.52-5.407-21.204.62-5.684 6.026-5.406 15.52.62 21.204z" fill="#c0edff" data-original="#c0edff"/><path d="m271.717 361.823v-26.937c0-8.284-6.716-15-15-15s-15 6.716-15 15v26.817l-49.256 45.228c-6.102 5.604-6.506 15.092-.903 21.194 2.958 3.222 6.999 4.854 11.053 4.854 3.625 0 7.261-1.307 10.142-3.951l28.965-26.596v30.66l-40.191 36.906c-6.102 5.604-6.506 15.092-.903 21.194 2.958 3.222 6.999 4.854 11.053 4.854 3.625 0 7.261-1.307 10.142-3.951l19.9-18.273v23.178c0 8.284 6.716 15 15 15s15-6.716 15-15v-22.32l18.32 17.28c6.024 5.684 15.519 5.406 21.204-.62 5.684-6.026 5.406-15.52-.62-21.204l-38.904-36.695v-30.378l27.386 25.83c6.027 5.684 15.52 5.406 21.204-.62s5.406-15.52-.62-21.204z" fill="#c0edff" data-original="#c0edff"/><path d="m195.352 308.228c7.117-4.241 9.447-13.448 5.207-20.564-4.242-7.116-13.448-9.447-20.564-5.207l-23.037 13.729-64.068-19.159c-7.935-2.373-16.295 2.137-18.668 10.074s2.137 16.295 10.074 18.668l37.675 11.266-26.34 15.698-52.277-15.632c-7.933-2.372-16.295 2.138-18.668 10.074s2.137 16.295 10.074 18.668l25.885 7.74-19.908 11.864c-7.117 4.241-9.447 13.448-5.207 20.564 2.808 4.71 7.789 7.323 12.9 7.323 2.611 0 5.258-.683 7.664-2.116l19.173-11.427-5.464 24.584c-1.798 8.087 3.301 16.1 11.388 17.897 1.097.244 2.19.36 3.269.36 6.876 0 13.075-4.758 14.629-11.748l11.604-52.206 26.096-15.552-8.169 36.748c-1.798 8.087 3.301 16.1 11.388 17.897 1.096.244 2.19.36 3.269.36 6.876 0 13.075-4.757 14.629-11.748l14.309-64.37z" fill="#c0edff" data-original="#c0edff"/></g><path d="m468.646 317.268-52.277 15.632-26.34-15.698 37.676-11.266c7.938-2.373 12.447-10.731 10.074-18.668-2.372-7.938-10.733-12.447-18.668-10.074l-64.068 19.158-23.037-13.729c-7.118-4.243-16.323-1.91-20.564 5.207-4.24 7.116-1.91 16.323 5.207 20.564l23.139 13.79 14.308 64.369c1.554 6.991 7.752 11.748 14.629 11.748 1.077 0 2.173-.117 3.269-.36 8.087-1.798 13.186-9.811 11.388-17.897l-8.168-36.748 26.095 15.552 11.605 52.206c1.554 6.991 7.752 11.748 14.629 11.748 1.077 0 2.173-.117 3.269-.36 8.087-1.798 13.186-9.811 11.388-17.897l-5.465-24.584 19.174 11.427c2.407 1.435 5.052 2.116 7.664 2.116 5.111 0 10.094-2.613 12.9-7.323 4.24-7.116 1.91-16.323-5.207-20.564l-19.908-11.865 25.884-7.74c7.938-2.373 12.447-10.731 10.074-18.668-2.374-7.941-10.734-12.453-18.67-10.076z" fill="#a3defb" data-original="#a3defb"/><path d="m316.648 203.541c-7.117 4.241-9.447 13.448-5.207 20.564 2.808 4.71 7.789 7.323 12.9 7.323 2.611 0 5.258-.683 7.664-2.116l23.037-13.729 64.068 19.157c1.434.429 2.88.633 4.303.633 6.457 0 12.421-4.203 14.365-10.707 2.373-7.937-2.137-16.295-10.074-18.668l-37.675-11.265 26.34-15.698 52.277 15.632c1.433.429 2.88.633 4.303.633 6.457 0 12.421-4.203 14.365-10.707 2.373-7.937-2.137-16.295-10.074-18.668l-25.884-7.74 19.908-11.865c7.117-4.241 9.447-13.448 5.207-20.564-4.242-7.116-13.448-9.447-20.564-5.207l-19.174 11.427 5.465-24.584c1.798-8.087-3.301-16.1-11.388-17.897-8.081-1.802-16.1 3.3-17.897 11.388l-11.605 52.206-26.095 15.552 8.168-36.748c1.798-8.087-3.301-16.1-11.388-17.897-8.091-1.799-16.1 3.302-17.897 11.388l-14.308 64.369z" fill="#a3defb" data-original="#a3defb"/><path d="m39.051 195.134c1.423 0 2.87-.204 4.303-.633l52.277-15.632 26.34 15.698-37.675 11.265c-7.938 2.373-12.447 10.731-10.074 18.668 1.944 6.504 7.907 10.707 14.365 10.707 1.423 0 2.87-.204 4.303-.633l64.068-19.157 23.037 13.729c2.406 1.435 5.052 2.116 7.664 2.116 5.111 0 10.094-2.613 12.9-7.323 4.24-7.116 1.91-16.323-5.207-20.564l-23.138-13.789-14.309-64.37c-1.797-8.086-9.806-13.182-17.897-11.388-8.087 1.798-13.186 9.811-11.388 17.897l8.169 36.748-26.096-15.552-11.604-52.206c-1.798-8.085-9.806-13.185-17.899-11.387-8.087 1.798-13.186 9.811-11.388 17.897l5.464 24.584-19.173-11.427c-7.114-4.243-16.323-1.91-20.564 5.207-4.24 7.116-1.91 16.323 5.207 20.564l19.908 11.864-25.885 7.74c-7.938 2.373-12.447 10.731-10.074 18.668 1.945 6.507 7.908 10.709 14.366 10.709z" fill="#c0edff" data-original="#c0edff"/><path d="m299.954 82.926-28.965 26.596v-30.66l40.191-36.906c6.102-5.604 6.506-15.092.903-21.194s-15.092-6.505-21.194-.903l-19.9 18.273v-23.177c0-7.983-6.242-14.491-14.109-14.955v192.023c7.867-.464 14.109-6.972 14.109-14.955v-26.817l49.256-45.228c6.102-5.604 6.506-15.092.903-21.194s-15.091-6.506-21.194-.903z" fill="#a3defb" data-original="#a3defb"/><path d="m271.717 361.832v-26.937c0-8.229-6.628-14.903-14.836-14.992v192.097c8.208-.089 14.836-6.763 14.836-14.992v-22.32l18.32 17.28c6.024 5.684 15.519 5.406 21.204-.62 5.684-6.026 5.406-15.52-.62-21.204l-38.904-36.695v-30.378l27.386 25.83c6.027 5.684 15.52 5.406 21.204-.62s5.406-15.52-.62-21.204z" fill="#a3defb" data-original="#a3defb"/><g><g><path d="m256.035 349.887c-2.588 0-5.176-.669-7.495-2.007l-68.362-39.436c-4.643-2.678-7.503-7.63-7.505-12.989l-.021-78.958c-.002-5.364 2.862-10.322 7.511-13l68.338-39.38c4.631-2.671 10.334-2.673 14.969-.006l68.359 39.323c4.654 2.677 7.522 7.637 7.521 13.006l-.021 79.07c-.002 5.36-2.863 10.312-7.507 12.99l-68.292 39.38c-2.32 1.338-4.908 2.007-7.495 2.007zm-53.364-63.101 53.365 30.784 53.293-30.73.018-61.729-53.351-30.689-53.343 30.738z" fill="#a3defb" data-original="#a3defb"/></g></g><path d="m331.828 203.406-68.359-39.323c-2.049-1.179-4.307-1.834-6.588-1.97v32.79l52.466 30.181-.018 61.729-52.449 30.244v32.776c2.302-.13 4.582-.787 6.648-1.979l68.292-39.38c4.644-2.678 7.505-7.63 7.507-12.99l.021-79.07c.003-5.371-2.866-10.331-7.52-13.008z" fill="#80bcff" data-original="#80bcff"/></g></g></svg>