<svg xmlns="http://www.w3.org/2000/svg" xmlns:xlink="http://www.w3.org/1999/xlink" xmlns:svgjs="http://svgjs.com/svgjs" version="1.1" width="512" height="512" x="0" y="0" viewBox="0 0 512 512" style="enable-background:new 0 0 512 512" xml:space="preserve"><g><g><path d="m475.131 142.03h-60.135c-1.229-8.22-3.418-16.243-6.489-23.897l26.775-15.463c7.18-4.14 9.64-13.32 5.49-20.49-4.14-7.17-13.31-9.63-20.49-5.49l-26.72 15.428c-5.074-6.514-10.919-12.448-17.437-17.643l30.006-51.975c4.14-7.17 1.68-16.35-5.5-20.49-7.17-4.14-16.34-1.68-20.49 5.49l-29.959 51.903c-7.538-3.001-15.578-5.165-24.051-6.341v-30.882c0-8.28-6.71-15-15-15 0 1.691-4 13.205-4 13.205v103.692s4 8.419 4 10.758c30.404-1.351 58.326 27.686 48.09 61.715-.967 3.199 1.458 6.44 4.79 6.44 1.784 0 19.181-6.169 40.16 2.74 5.745-10.948 9.311-22.32 10.938-33.7h60.022c8.29 0 15-6.72 15-15 0-8.29-6.71-15-15-15z" fill="#ffbf00" data-original="#ffbf00"/><path d="m296.131 22.18v30.92c-8.351 1.195-16.383 3.372-23.979 6.412l-30.021-52.012c-4.15-7.17-13.32-9.63-20.5-5.49-7.17 4.14-9.63 13.32-5.49 20.49l30.041 52.034c-2.954 2.329-5.785 4.808-8.471 7.436 20.48 12.63 35.9 32.98 41.98 57.7.839 3.377 4.762 4.852 7.59 2.99 7.689-5.021 15.855-7.47 23.85-7.825 0-21.094 0-113.985 0-127.655-8.28 0-15 6.72-15 15z" fill="#ffda00" data-original="#ffda00"/><g fill="#0edaf7"><path d="m84.136 302c-8.284 0-15 6.716-15 15v30c0 8.284 6.716 15 15 15s15-6.716 15-15v-30c0-8.284-6.716-15-15-15z" fill="#0edaf7" data-original="#0edaf7"/><path d="m84.136 452c-8.284 0-15 6.716-15 15v30c0 8.284 6.716 15 15 15s15-6.716 15-15v-30c0-8.284-6.716-15-15-15z" fill="#0edaf7" data-original="#0edaf7"/><path d="m159.136 377c-8.284 0-15 6.716-15 15v30c0 8.284 6.716 15 15 15s15-6.716 15-15v-30c0-8.284-6.716-15-15-15z" fill="#0edaf7" data-original="#0edaf7"/></g><path d="m309.136 377c-8.284 0-15 6.716-15 15v30c0 8.284 6.716 15 15 15s15-6.716 15-15v-30c0-8.284-6.716-15-15-15z" fill="#00c4ff" data-original="#00c4ff"/><path d="m234.136 302c-8.284 0-15 6.716-15 15v30c0 8.284 6.716 15 15 15s15-6.716 15-15v-30c0-8.284-6.716-15-15-15z" fill="#0edaf7" data-original="#0edaf7"/><path d="m249.14 317v30c0 8.28-6.72 15-15 15v-60c8.28 0 15 6.72 15 15z" fill="#00c4ff" data-original="#00c4ff"/><path d="m234.136 452c-8.284 0-15 6.716-15 15v30c0 8.284 6.716 15 15 15s15-6.716 15-15v-30c0-8.284-6.716-15-15-15z" fill="#0edaf7" data-original="#0edaf7"/><path d="m249.14 467v30c0 8.28-6.72 15-15 15v-60c8.28 0 15 6.72 15 15z" fill="#00c4ff" data-original="#00c4ff"/><path d="m384.136 452c-8.284 0-15 6.716-15 15v30c0 8.284 6.716 15 15 15s15-6.716 15-15v-30c0-8.284-6.716-15-15-15z" fill="#00c4ff" data-original="#00c4ff"/><path d="m384.136 303c-8.284 0-15 6.716-15 15v30c0 8.284 6.716 15 15 15s15-6.716 15-15v-30c0-8.284-6.716-15-15-15z" fill="#00c4ff" data-original="#00c4ff"/><path d="m364.008 197.987c14.248-47.334-38.646-86.178-79.46-59.515-10.658-43.358-49.786-75.522-96.432-75.522-69.153 0-116.83 68.923-93.317 133.353-39.192-4.051-72.93 26.669-72.93 65.702 0 36.483 29.575 66.058 66.058 66.058h292.418c36.483 0 66.058-29.575 66.058-66.058 0-43.121-40.662-74.636-82.395-64.018z" fill="#e9f4ff" data-original="#e9f4ff"/><path d="m446.4 262c0 36.49-29.57 66.06-66.06 66.06h-146.2v-253.82c24.88 13.04 43.55 36.31 50.41 64.23 40.81-26.66 93.71 12.18 79.46 59.52 41.73-10.62 82.39 20.89 82.39 64.01z" fill="#cde8ff" data-original="#cde8ff"/></g></g></svg>