<svg xmlns="http://www.w3.org/2000/svg" xmlns:xlink="http://www.w3.org/1999/xlink" xmlns:svgjs="http://svgjs.com/svgjs" version="1.1" width="512" height="512" x="0" y="0" viewBox="0 0 64 64" style="enable-background:new 0 0 512 512" xml:space="preserve"><g><path d="m23 14v32h4v-32a6 6 0 0 1 6-6h18v-1a3 3 0 0 0 -3-3h-15a10 10 0 0 0 -10 10z" fill="#f6f9ff" data-original="#f6f9ff"/><path d="m51 8v-1a2.983 2.983 0 0 0 -.14-.86 2.983 2.983 0 0 0 -.86-.14h-17a8 8 0 0 0 -8 8v32h2v-32a6 6 0 0 1 6-6z" fill="#e9f0ff" data-original="#e9f0ff"/><path d="m39 8h12a0 0 0 0 1 0 0v1a3 3 0 0 1 -3 3h-6a3 3 0 0 1 -3-3v-1a0 0 0 0 1 0 0z" fill="#ffe17a" data-original="#ffe17a"/><path d="m51 9v-1h-12v1a2.962 2.962 0 0 0 .184 1h11.632a2.962 2.962 0 0 0 .184-1z" fill="#fad764" data-original="#fad764"/><path d="m29 56h-8v-11a4 4 0 0 1 4-4 4 4 0 0 1 4 4z" fill="#7182aa" data-original="#7182aa"/><path d="m29 56v-11a3.961 3.961 0 0 0 -.36-1.64 3.985 3.985 0 0 0 -5.64 3.64v9z" fill="#596d8d" data-original="#596d8d"/><path d="m61 60v-2a3.991 3.991 0 0 0 -6.746-2.9 5.993 5.993 0 0 0 -10.39-.194 4.978 4.978 0 0 0 -6.42.579 5.992 5.992 0 0 0 -10.888 0 4.978 4.978 0 0 0 -6.42-.579 5.993 5.993 0 0 0 -10.39.194 3.991 3.991 0 0 0 -6.746 2.9v2z" fill="#f6f9ff" data-original="#f6f9ff"/><g fill="#e9f0ff"><path d="m57 56a3.978 3.978 0 0 0 -2.746 1.1 5.993 5.993 0 0 0 -10.39-.194 4.978 4.978 0 0 0 -6.42.579 5.992 5.992 0 0 0 -10.888 0 4.978 4.978 0 0 0 -6.42-.579 5.993 5.993 0 0 0 -10.39.194 3.991 3.991 0 0 0 -6.746 2.9h58a4 4 0 0 0 -4-4z" fill="#e9f0ff" data-original="#e9f0ff"/><circle cx="18" cy="6" r="2" fill="#e9f0ff" data-original="#e9f0ff"/><circle cx="15" cy="31" r="2" fill="#e9f0ff" data-original="#e9f0ff"/><circle cx="10" cy="16" r="2" fill="#e9f0ff" data-original="#e9f0ff"/><circle cx="6" cy="45" r="2" fill="#e9f0ff" data-original="#e9f0ff"/><circle cx="58" cy="6" r="2" fill="#e9f0ff" data-original="#e9f0ff"/><circle cx="57" cy="38" r="2" fill="#e9f0ff" data-original="#e9f0ff"/><circle cx="56" cy="18" r="2" fill="#e9f0ff" data-original="#e9f0ff"/><circle cx="47" cy="28" r="2" fill="#e9f0ff" data-original="#e9f0ff"/><circle cx="37" cy="20" r="2" fill="#e9f0ff" data-original="#e9f0ff"/><circle cx="39" cy="46" r="2" fill="#e9f0ff" data-original="#e9f0ff"/></g></g></svg>