<svg xmlns="http://www.w3.org/2000/svg" xmlns:xlink="http://www.w3.org/1999/xlink" xmlns:svgjs="http://svgjs.com/svgjs" version="1.1" width="512" height="512" x="0" y="0" viewBox="0 0 24 24" style="enable-background:new 0 0 512 512" xml:space="preserve"><g><g clip-rule="evenodd" fill-rule="evenodd"><path d="m12 1.5c.2761 0 .5.22386.5.5v1.81818c0 .27614-.2239.5-.5.5s-.5-.22386-.5-.5v-1.81818c0-.27614.2239-.5.5-.5z" fill="#fecc6d" data-original="#fecc6d"/><path d="m1.5 12c0-.2761.22386-.5.5-.5h1.81818c.27614 0 .5.2239.5.5s-.22386.5-.5.5h-1.81818c-.27614 0-.5-.2239-.5-.5z" fill="#fecc6d" data-original="#fecc6d"/><path d="m19.6818 12c0-.2761.2239-.5.5-.5h1.8182c.2761 0 .5.2239.5.5s-.2239.5-.5.5h-1.8182c-.2761 0-.5-.2239-.5-.5z" fill="#fecc6d" data-original="#fecc6d"/><path d="m4.57538 19.4246c-.19526-.1952-.19526-.5118 0-.7071l1.28565-1.2856c.19526-.1953.51184-.1953.7071 0 .19527.1952.19527.5118 0 .7071l-1.28564 1.2856c-.19527.1953-.51185.1953-.70711 0z" fill="#fecc6d" data-original="#fecc6d"/><path d="m17.4319 6.56813c-.1953-.19526-.1953-.51184 0-.7071l1.2856-1.28565c.1953-.19526.5119-.19526.7071 0 .1953.19526.1953.51184 0 .70711l-1.2856 1.28564c-.1953.19527-.5119.19527-.7071 0z" fill="#fecc6d" data-original="#fecc6d"/><path d="m4.57538 4.57538c.19526-.19526.51184-.19526.70711 0l1.28564 1.28565c.19527.19526.19527.51184 0 .7071-.19526.19527-.51184.19527-.7071 0l-1.28565-1.28564c-.19526-.19527-.19526-.51185 0-.70711z" fill="#fecc6d" data-original="#fecc6d"/><path d="m17.4319 17.4319c.1952-.1953.5118-.1953.7071 0l1.2856 1.2856c.1953.1953.1953.5119 0 .7071-.1952.1953-.5118.1953-.7071 0l-1.2856-1.2856c-.1953-.1953-.1953-.5119 0-.7071z" fill="#fecc6d" data-original="#fecc6d"/><path d="m12 19.6818c.2761 0 .5.2239.5.5v1.8182c0 .2761-.2239.5-.5.5s-.5-.2239-.5-.5v-1.8182c0-.2761.2239-.5.5-.5z" fill="#fecc6d" data-original="#fecc6d"/><path d="m12 18.36c3.5125 0 6.36-2.8475 6.36-6.36 0-3.51253-2.8475-6.36-6.36-6.36-3.51253 0-6.36 2.84747-6.36 6.36 0 3.5125 2.84747 6.36 6.36 6.36z" fill="#fecc6d" data-original="#fecc6d"/></g><path d="m12 18.36c3.5125 0 6.36-2.8475 6.36-6.36 0-2.01101-.9334-3.80403-2.3905-4.96948.8702 1.08798 1.3905 2.46796 1.3905 3.96948 0 3.5125-2.8475 6.36-6.36 6.36-1.50151 0-2.8815-.5203-3.96948-1.3905 1.16545 1.4571 2.95847 2.3905 4.96948 2.3905z" fill="#ffc24f" data-original="#ffc24f"/><path clip-rule="evenodd" d="m9.99652 7.70003c.16568.22091.12088.53431-.1.7l-.224.168c-.74705.56029-1.3013 1.33912-1.58591 2.22847l-.11026.3446c-.08417.263-.3656.408-.6286.3239-.26301-.0842-.40799-.3656-.32383-.6286l.11027-.3446c.34785-1.08707 1.02526-2.03897 1.93833-2.72377l.224-.168c.22092-.16569.53432-.12091.7.1z" fill="#ffffff" fill-rule="evenodd" data-original="#ffffff"/></g></svg>